<svg width="121" height="23" viewBox="0 0 121 23" fill="none" xmlns="http://www.w3.org/2000/svg">
<path d="M121 10.988C121 16.7018 116.649 21.4046 111.111 21.976H21.976V0H111.155C116.693 0.571377 121 5.27425 121 10.988Z" fill="white"/>
<path d="M38.6778 4.83475L39.5569 10.2848L38.6778 14.1526L35.1617 15.7349L35.5572 11.8671L32.9641 9.01019L36.7439 8.21906L38.6778 4.83475Z" fill="#FFD54F"/>
<path d="M41.7986 11.8668L42.2381 15.7346L38.678 14.1523V4.8345L40.6119 8.21881L44.3917 9.00995L41.7986 11.8668Z" fill="#FFD54F"/>
<path d="M53.9294 4.8345L54.8085 10.2846L53.9294 14.1523L50.4133 15.7346L50.8088 11.8668L48.2157 9.00995L51.9955 8.21881L53.9294 4.8345Z" fill="#FFD54F"/>
<path d="M57.0497 11.8666L57.4453 15.7344L53.9291 14.1521V4.83426L55.863 8.21857L59.6429 9.0097L57.0497 11.8666Z" fill="#FFD54F"/>
<path d="M69.1367 4.8345L70.0157 10.2846L69.1367 14.1523L65.6205 15.7346L66.0161 11.8668L63.4229 9.00995L67.2028 8.21881L69.1367 4.8345Z" fill="#FFD54F"/>
<path d="M72.2572 11.8666L72.6967 15.7344L69.1366 14.1521V4.83426L71.0705 8.21857L74.8503 9.0097L72.2572 11.8666Z" fill="#FFD54F"/>
<path d="M84.3881 4.8345L85.2672 10.2846L84.3881 14.1523L80.8719 15.7346L81.2675 11.8668L78.6743 9.00995L82.4542 8.21881L84.3881 4.8345Z" fill="#FFD54F"/>
<path d="M87.5091 11.8666L87.9046 15.7344L84.3885 14.1521V4.83426L86.3224 8.21857L90.1022 9.0097L87.5091 11.8666Z" fill="#FFD54F"/>
<path d="M99.5954 4.8345L100.474 10.2846L99.5954 14.1523L96.0792 15.7346L96.4748 11.8668L93.8816 9.00995L97.6615 8.21881L99.5954 4.8345Z" fill="#ECEFF1"/>
<path d="M102.716 11.8666L103.155 15.7344L99.5949 14.1521V4.83426L101.529 8.21857L105.309 9.0097L102.716 11.8666Z" fill="#ECEFF1"/>
<g clip-path="url(#clip0_1_160)">
<path d="M21.976 0V21.976H9.88921C4.35125 21.4046 0 16.7018 0 10.988C0 5.27425 4.35125 0.571377 9.88921 0H21.976Z" fill="#37474F"/>
</g>
<path d="M8.609 14C8.549 14 8.498 13.982 8.456 13.946C8.42 13.904 8.402 13.853 8.402 13.793V12.497H5.486C5.426 12.497 5.375 12.479 5.333 12.443C5.297 12.401 5.279 12.35 5.279 12.29V11.93C5.279 11.84 5.312 11.75 5.378 11.66L8.078 7.853C8.108 7.805 8.153 7.769 8.213 7.745C8.273 7.715 8.339 7.7 8.411 7.7H9.059C9.119 7.7 9.167 7.721 9.203 7.763C9.245 7.799 9.266 7.847 9.266 7.907V11.714H10.076C10.136 11.714 10.187 11.735 10.229 11.777C10.271 11.813 10.292 11.861 10.292 11.921V12.29C10.292 12.35 10.271 12.401 10.229 12.443C10.193 12.479 10.145 12.497 10.085 12.497H9.266V13.793C9.266 13.853 9.245 13.904 9.203 13.946C9.167 13.982 9.119 14 9.059 14H8.609ZM8.411 11.732V8.645L6.242 11.732H8.411ZM11.268 14C11.208 14 11.157 13.982 11.115 13.946C11.079 13.904 11.061 13.853 11.061 13.793V13.145C11.061 13.085 11.079 13.037 11.115 13.001C11.157 12.959 11.208 12.938 11.268 12.938H11.916C11.976 12.938 12.027 12.959 12.069 13.001C12.111 13.037 12.132 13.085 12.132 13.145V13.793C12.132 13.853 12.111 13.904 12.069 13.946C12.027 13.982 11.976 14 11.916 14H11.268ZM15.4468 14.09C14.6728 14.09 14.1058 13.865 13.7458 13.415C13.3858 12.965 13.1938 12.374 13.1698 11.642C13.1638 11.48 13.1608 11.219 13.1608 10.859C13.1608 10.487 13.1638 10.217 13.1698 10.049C13.1878 9.329 13.3798 8.744 13.7458 8.294C14.1118 7.838 14.6788 7.61 15.4468 7.61C16.2208 7.61 16.7908 7.838 17.1568 8.294C17.5228 8.744 17.7148 9.329 17.7328 10.049C17.7448 10.385 17.7508 10.655 17.7508 10.859C17.7508 11.057 17.7448 11.318 17.7328 11.642C17.7088 12.374 17.5168 12.965 17.1568 13.415C16.7968 13.865 16.2268 14.09 15.4468 14.09ZM15.4468 13.316C15.8968 13.316 16.2358 13.166 16.4638 12.866C16.6978 12.566 16.8208 12.143 16.8328 11.597C16.8448 11.249 16.8508 10.997 16.8508 10.841C16.8508 10.673 16.8448 10.427 16.8328 10.103C16.8208 9.563 16.7008 9.14 16.4728 8.834C16.2448 8.528 15.9028 8.375 15.4468 8.375C14.9968 8.375 14.6548 8.528 14.4208 8.834C14.1928 9.14 14.0728 9.563 14.0608 10.103L14.0518 10.841L14.0608 11.597C14.0728 12.143 14.1928 12.566 14.4208 12.866C14.6548 13.166 14.9968 13.316 15.4468 13.316Z" fill="#FAFAFA"/>
<defs>
<clipPath id="clip0_1_160">
<rect width="21.976" height="21.976" fill="white"/>
</clipPath>
</defs>
</svg>
