<svg width="74" height="12" viewBox="0 0 74 12" fill="none" xmlns="http://www.w3.org/2000/svg">
<path d="M6.67781 0.834717L7.55685 6.28477L6.67781 10.1526L3.16164 11.7348L3.55721 7.86705L0.964039 5.01016L4.74391 4.21903L6.67781 0.834717Z" fill="#FFD54F"/>
<path d="M9.79857 7.8668L10.2381 11.7346L6.67798 10.1523V0.834473L8.61187 4.21878L12.3917 5.00992L9.79857 7.8668Z" fill="#FFD54F"/>
<path d="M21.9294 0.834473L22.8085 6.28453L21.9294 10.1523L18.4133 11.7346L18.8088 7.8668L16.2157 5.00992L19.9955 4.21878L21.9294 0.834473Z" fill="#FFD54F"/>
<path d="M25.0497 7.86656L25.4453 11.7343L21.9291 10.1521V0.834229L23.863 4.21854L27.6429 5.00967L25.0497 7.86656Z" fill="#FFD54F"/>
<path d="M37.1367 0.834473L38.0157 6.28453L37.1367 10.1523L33.6205 11.7346L34.0161 7.8668L31.4229 5.00992L35.2028 4.21878L37.1367 0.834473Z" fill="#FFD54F"/>
<path d="M40.2571 7.86656L40.6967 11.7343L37.1365 10.1521V0.834229L39.0704 4.21854L42.8503 5.00967L40.2571 7.86656Z" fill="#FFD54F"/>
<path d="M52.3881 0.834473L53.2672 6.28453L52.3881 10.1523L48.8719 11.7346L49.2675 7.8668L46.6743 5.00992L50.4542 4.21878L52.3881 0.834473Z" fill="#FFD54F"/>
<path d="M55.5091 7.86656L55.9046 11.7343L52.3885 10.1521V0.834229L54.3224 4.21854L58.1022 5.00967L55.5091 7.86656Z" fill="#FFD54F"/>
<path d="M67.5954 0.834473L68.4744 6.28453L67.5954 10.1523L64.0792 11.7346L64.4748 7.8668L61.8816 5.00992L65.6615 4.21878L67.5954 0.834473Z" fill="#FFD54F"/>
<path d="M70.7155 7.86656L71.1551 11.7343L67.5949 10.1521V0.834229L69.5288 4.21854L73.3087 5.00967L70.7155 7.86656Z" fill="#ECEFF1"/>
</svg>
