<svg  viewBox="0 0 121 23" fill="none" xmlns="http://www.w3.org/2000/svg">
<path d="M121 10.988C121 16.7018 116.649 21.4046 111.111 21.976H21.976V0H111.155C116.693 0.571377 121 5.27425 121 10.988Z" fill="#F6F6F6"/>
<path d="M38.6778 4.83472L39.5568 10.2848L38.6778 14.1526L35.1616 15.7348L35.5572 11.867L32.964 9.01016L36.7439 8.21903L38.6778 4.83472Z" fill="#FFD54F"/>
<path d="M41.7986 11.8668L42.2381 15.7346L38.678 14.1523V4.83447L40.6119 8.21878L44.3917 9.00992L41.7986 11.8668Z" fill="#FFD54F"/>
<path d="M53.9294 4.83447L54.8085 10.2845L53.9294 14.1523L50.4133 15.7346L50.8088 11.8668L48.2157 9.00992L51.9955 8.21878L53.9294 4.83447Z" fill="#FFD54F"/>
<path d="M57.0497 11.8666L57.4453 15.7343L53.9291 14.1521V4.83423L55.863 8.21854L59.6429 9.00967L57.0497 11.8666Z" fill="#FFD54F"/>
<path d="M69.1367 4.83447L70.0157 10.2845L69.1367 14.1523L65.6205 15.7346L66.0161 11.8668L63.4229 9.00992L67.2028 8.21878L69.1367 4.83447Z" fill="#FFD54F"/>
<path d="M72.2571 11.8666L72.6967 15.7343L69.1365 14.1521V4.83423L71.0704 8.21854L74.8503 9.00967L72.2571 11.8666Z" fill="#FFD54F"/>
<path d="M84.3881 4.83447L85.2672 10.2845L84.3881 14.1523L80.8719 15.7346L81.2675 11.8668L78.6743 9.00992L82.4542 8.21878L84.3881 4.83447Z" fill="#FFD54F"/>
<path d="M87.5091 11.8666L87.9046 15.7343L84.3885 14.1521V4.83423L86.3224 8.21854L90.1022 9.00967L87.5091 11.8666Z" fill="#FFD54F"/>
<path d="M99.5954 4.83447L100.474 10.2845L99.5954 14.1523L96.0792 15.7346L96.4748 11.8668L93.8816 9.00992L97.6615 8.21878L99.5954 4.83447Z" fill="#FFD54F"/>
<path d="M102.716 11.8666L103.155 15.7343L99.5949 14.1521V4.83423L101.529 8.21854L105.309 9.00967L102.716 11.8666Z" fill="#ECEFF1"/>
<g clip-path="url(#clip0_1_280)">
<path d="M21.976 0V21.976H9.88921C4.35125 21.4046 0 16.7018 0 10.988C0 5.27425 4.35125 0.571377 9.88921 0H21.976Z" fill="#37474F"/>
</g>
<path d="M8.609 14C8.549 14 8.498 13.982 8.456 13.946C8.42 13.904 8.402 13.853 8.402 13.793V12.497H5.486C5.426 12.497 5.375 12.479 5.333 12.443C5.297 12.401 5.279 12.35 5.279 12.29V11.93C5.279 11.84 5.312 11.75 5.378 11.66L8.078 7.853C8.108 7.805 8.153 7.769 8.213 7.745C8.273 7.715 8.339 7.7 8.411 7.7H9.059C9.119 7.7 9.167 7.721 9.203 7.763C9.245 7.799 9.266 7.847 9.266 7.907V11.714H10.076C10.136 11.714 10.187 11.735 10.229 11.777C10.271 11.813 10.292 11.861 10.292 11.921V12.29C10.292 12.35 10.271 12.401 10.229 12.443C10.193 12.479 10.145 12.497 10.085 12.497H9.266V13.793C9.266 13.853 9.245 13.904 9.203 13.946C9.167 13.982 9.119 14 9.059 14H8.609ZM8.411 11.732V8.645L6.242 11.732H8.411ZM11.268 14C11.208 14 11.157 13.982 11.115 13.946C11.079 13.904 11.061 13.853 11.061 13.793V13.145C11.061 13.085 11.079 13.037 11.115 13.001C11.157 12.959 11.208 12.938 11.268 12.938H11.916C11.976 12.938 12.027 12.959 12.069 13.001C12.111 13.037 12.132 13.085 12.132 13.145V13.793C12.132 13.853 12.111 13.904 12.069 13.946C12.027 13.982 11.976 14 11.916 14H11.268ZM15.3536 14.09C14.8976 14.09 14.5046 14.009 14.1746 13.847C13.8446 13.685 13.5896 13.472 13.4096 13.208C13.2356 12.944 13.1426 12.662 13.1306 12.362V12.344C13.1306 12.296 13.1486 12.257 13.1846 12.227C13.2206 12.197 13.2626 12.182 13.3106 12.182H13.7966C13.9226 12.182 14.0036 12.248 14.0396 12.38C14.1236 12.698 14.2856 12.935 14.5256 13.091C14.7656 13.247 15.0416 13.325 15.3536 13.325C15.7556 13.325 16.0886 13.205 16.3526 12.965C16.6226 12.719 16.7576 12.38 16.7576 11.948C16.7576 11.558 16.6226 11.243 16.3526 11.003C16.0886 10.763 15.7556 10.643 15.3536 10.643C15.1376 10.643 14.9636 10.673 14.8316 10.733C14.6996 10.787 14.5676 10.865 14.4356 10.967C14.3636 11.021 14.3006 11.063 14.2466 11.093C14.1986 11.117 14.1446 11.129 14.0846 11.129H13.6166C13.5626 11.129 13.5146 11.111 13.4726 11.075C13.4306 11.033 13.4126 10.985 13.4186 10.931L13.7066 7.925C13.7126 7.853 13.7336 7.799 13.7696 7.763C13.8116 7.721 13.8656 7.7 13.9316 7.7H17.0726C17.1326 7.7 17.1806 7.721 17.2166 7.763C17.2586 7.799 17.2796 7.847 17.2796 7.907V8.258C17.2796 8.318 17.2586 8.369 17.2166 8.411C17.1806 8.447 17.1326 8.465 17.0726 8.465H14.4806L14.3096 10.238C14.6336 10.034 15.0236 9.932 15.4796 9.932C15.8756 9.932 16.2386 10.013 16.5686 10.175C16.9046 10.337 17.1686 10.571 17.3606 10.877C17.5586 11.183 17.6576 11.543 17.6576 11.957C17.6576 12.401 17.5586 12.785 17.3606 13.109C17.1686 13.427 16.8986 13.67 16.5506 13.838C16.2026 14.006 15.8036 14.09 15.3536 14.09Z" fill="#FAFAFA"/>
<defs>
<clipPath id="clip0_1_280">
<rect width="21.976" height="21.976" fill="white"/>
</clipPath>
</defs>
</svg>
