<svg width="26" height="20" viewBox="0 0 26 20" fill="none" xmlns="http://www.w3.org/2000/svg">
<path d="M25.9778 19.0522C25.8901 11.8246 19.6596 5.93836 11.907 5.67547V1.87495C11.907 0.978914 11.1787 0.25 10.2833 0.25C9.88056 0.25 9.49157 0.404476 9.19029 0.684789C9.19029 0.684789 2.34355 7.02376 0.374207 9.00047C0.133199 9.24382 0 9.59822 0 9.9997C0 10.4012 0.133199 10.7556 0.374207 10.9994C2.34355 12.9756 9.19029 19.3146 9.19029 19.3146C9.49157 19.595 9.88056 19.7494 10.2833 19.7494C11.1786 19.7494 11.907 19.0205 11.907 18.1244V14.3366C19.7008 14.4461 24.8964 16.9063 24.8964 19.2078C24.8964 19.5072 25.1385 19.7494 25.4376 19.7494C25.4461 19.7505 25.4546 19.7499 25.4588 19.7494C25.7579 19.7494 26 19.5071 26 19.2078C26 19.1538 25.9926 19.1014 25.9778 19.0522Z" fill="black"/>
</svg>
